<svg xmlns="http://www.w3.org/2000/svg" viewBox="0 0 35 30" width="24" height="24" preserveAspectRatio="xMidYMid meet" style="width: 100%; height: 100%; transform: translate3d(0px, 0px, 0px);">
  <defs>
    <clipPath id="__lottie_element_1339">
      <rect width="72" height="72" x="0" y="0" />
    </clipPath>
    <clipPath id="__lottie_element_1341">
      <path d="M0,0 L31,0 L31,31 L0,31z" />
    </clipPath>
  </defs>
  <g clip-path="url(#__lottie_element_1339)">
    <g clip-path="url(#__lottie_element_1341)" transform="matrix(1,0,0,1,0,0)" opacity="1" style="display: block;">
      <g transform="matrix(0.49998,0,0,0.49998,16.243,16)" opacity="1" style="display: block;">
        <g opacity="1" transform="matrix(2,0,0,2,0,0)">
          <path fill="#FFFFFF" fill-opacity="1" d="M1.25,4.287c0-.375.105-.742.304-1.06l1.94-3.105c.393-.629 1.005-1.091 1.719-1.295l2.036-.581V-6.5c-1.116-.005-2.225-.187-3.284-.54l-1.493-.498c-.918-.306-1.879-.462-2.846-.462H-4.25c-.828 0-1.5.672-1.5 1.5v.499l-.399.3c-.367.275-.601.711-.601 1.201 0 .093.008.183.024.27l.081.445-.281.354c-.203.256-.324.578-.324.931s.121.675.324.931l.281.354-.081.446c-.016.087-.024.177-.024.27 0 .828.672 1.5 1.5 1.5h4.069l-.323 1.25c-.144.558-.246 1.165-.246 1.75 0 .773.177 1.773.393 2.689.179.758.893 1.311 1.77 1.311H1.25V4.287zM3.25,8.5c0 .828-.672 1.5-1.5 1.5H.412c-1.705 0-3.302-1.097-3.716-2.852-.225-.954-.446-2.137-.446-3.148 0-.34.025-.676.066-1H-5.25c-1.933 0-3.5-1.567-3.5-3.5 0-.063.002-.126.005-.188C-8.064-1.217-8.25-1.838-8.25-2.5s.186-1.283.506-1.812C-7.748-4.374-7.75-4.437-7.75-4.5c0-.971.396-1.85 1.033-2.483-.235-1.705 1.227-3.018 2.996-3.018h3.877c1.182 0 2.357.19 3.479.564l1.493.498c.87.29 1.781.438 2.698.438.899 0 1.773.874 1.773 1.953v4.793c0 .893-.592 1.678-1.451 1.922l-2.035.581c-.238.068-.442.222-.573.432l-1.941 3.105V8.5z"/>
        </g>
      </g>
    </g>
  </g>
</svg>
